PathFileType	4	(X/Y/Z)	C:\Users\WrightLab\Desktop\Jo\P1.2Trial11.trc
DataRate	CameraRate	NumFrames	NumMarkers	Units	OrigDataRate	OrigDataStartFrame	OrigNumFrames
100.00	100.00	       17	19	mm	100.00	306	       814
Frame#	Time	Headset_Front			Headset_Back			Headset_Left			Headset_Right			Left_Shoulder			Right_Shoulder			Sternum			C7			Left Elbow			Right Elbow			Left Wrist			Right Wrist			Left ASIS			Right ASIS			S2			Left Knee			Right Knee			Left Ankle			Right Ankle			
		X1	Y1	Z1	X2	Y2	Z2	X3	Y3	Z3	X4	Y4	Z4	X5	Y5	Z5	X6	Y6	Z6	X7	Y7	Z7	X8	Y8	Z8	X9	Y9	Z9	X10	Y10	Z10	X11	Y11	Z11	X12	Y12	Z12	X13	Y13	Z13	X14	Y14	Z14	X15	Y15	Z15	X16	Y16	Z16	X17	Y17	Z17	X18	Y18	Z18	X19	Y19	Z19	

306	3.050	-842.48669	1424.71570	1107.94727	-992.35760	1534.98340	1243.48242	-1068.84290	1457.39856	1111.86511	-917.52130	1374.48059	986.73798	-1199.56323	1253.63171	1224.18689				-986.06787	1180.08630	1113.75769	-989.58234	1332.50818	1330.39856	-1115.91528	870.16278	1162.66284	-689.24158	1027.54370	1295.69556				-642.28540	792.63312	1188.42627				-837.16681	861.38501	1153.99390	-975.28033	937.81854	1437.02832				-854.08099	500.31100	1072.76257				-861.92352	149.19792	1069.81885	
307	3.060	-841.95880	1423.36914	1101.10901	-992.54047	1533.71118	1236.05872	-1068.51233	1456.12207	1104.12537	-916.46436	1372.85315	979.88959	-1199.72144	1252.13892	1216.69299				-986.42206	1178.99194	1106.74316	-989.96338	1331.37183	1323.36255	-1115.88574	868.39374	1157.14392	-689.91028	1027.29346	1290.62915				-640.57294	790.50989	1185.36279				-836.72729	859.92889	1148.24683	-975.72510	936.75830	1429.91296				-854.80017	497.52621	1068.29150				-860.85345	151.09477	1045.35559	
308	3.070	-841.49530	1421.66345	1095.38501	-992.93732	1532.63379	1228.57520	-1068.00745	1454.63538	1096.33032	-915.13354	1371.26440	972.96454	-1199.98682	1250.89001	1209.39600				-986.57874	1177.70337	1099.57495	-990.26349	1330.17041	1316.24170	-1115.61426	866.71472	1149.89905	-690.71637	1025.25879	1284.68005				-638.81445	788.65063	1184.01294				-837.20770	858.16656	1141.15295	-975.25195	934.98346	1422.92590				-854.24030	495.39398	1064.47839				-859.79163	153.52263	1025.80542	
309	3.080	-840.91760	1420.20569	1088.87976	-992.67084	1531.28711	1221.04810	-1067.33215	1453.25427	1088.60400				-1200.15332	1249.68896	1202.12695				-986.93970	1176.61255	1092.38354	-990.55078	1328.96338	1309.10681	-1115.24438	865.89459	1141.31665	-691.49164	1024.08801	1278.83154				-636.96130	785.91296	1181.90100				-837.62976	857.23090	1134.35718	-976.26178	934.44208	1415.87305				-853.36731	493.27728	1058.26477				-857.81573	157.29488	1005.67493	
310	3.090	-840.06970	1418.74194	1081.62854	-992.64874	1530.23047	1213.54871	-1066.61145	1451.82019	1080.90393				-1199.94873	1248.16394	1194.92358				-986.99805	1175.40454	1085.06384	-990.35901	1327.60681	1301.95874	-1115.35327	865.16675	1133.99500	-691.85461	1022.63715	1272.82568				-635.40710	784.27972	1179.02026				-837.91382	855.96033	1126.47058	-975.46362	932.58447	1408.07568				-852.79547	491.10626	1053.72253				-853.71600	162.84224	985.61755	
311	3.100	-839.01288	1417.29102	1074.10669	-991.95343	1528.68750	1205.97778	-1065.78503	1450.34448	1073.11670				-1199.57312	1246.83936	1187.71423				-986.90649	1174.11560	1077.63306	-990.08337	1326.11340	1294.69482	-1115.35071	863.42194	1127.00867	-691.74976	1021.11938	1267.20203				-633.03741	781.94971	1176.94446				-837.57623	854.76532	1118.52686	-975.74066	931.66956	1401.23804				-851.83923	488.86209	1046.75098				-851.50690	167.13123	967.30377	
312	3.110	-837.87274	1415.88318	1068.17322	-991.60059	1527.50464	1198.49585	-1064.66064	1448.89136	1065.44824				-1199.01843	1245.48450	1180.43713				-986.69672	1172.97913	1070.18823	-989.71155	1324.68811	1287.40210	-1115.59021	862.94922	1119.90466	-691.21747	1019.15833	1260.73279				-630.48981	779.74500	1174.47693				-837.36493	852.82629	1111.68616	-975.70837	930.26428	1392.78711				-852.44440	485.89868	1042.53784				-848.44635	171.79327	952.06592	
313	3.120	-836.62305	1414.22473	1061.52271	-991.33911	1526.42578	1191.08362	-1063.43994	1447.37305	1057.69922				-1198.19409	1243.86389	1173.16675				-986.32465	1171.65063	1062.58667	-988.87939	1323.08508	1280.05164	-1115.49768	861.75787	1111.51624	-691.05023	1017.71356	1254.14819				-628.77753	778.16083	1171.61963				-837.98706	852.01300	1102.48486	-974.56207	928.00146	1385.57336				-851.26508	483.79581	1036.17859				-846.25433	175.10739	938.50073	
314	3.130				-990.04675	1524.72461	1183.51001	-1062.09082	1445.90564	1050.00635				-1197.30371	1242.44592	1165.77637				-985.75958	1170.37756	1054.89172	-987.66046	1321.26733	1272.59131				-690.85101	1015.82501	1247.41699				-626.54803	775.52356	1168.67883				-837.92126	850.09430	1093.85669	-975.46759	927.99408	1376.81653				-849.95929	481.54456	1029.18738				-842.55676	178.18307	924.69800	
315	3.140	-834.08807	1411.59399	1047.08875	-988.80853	1523.22742	1176.05493	-1060.68835	1444.63062	1042.23682				-1196.32605	1241.04407	1158.32727				-984.99347	1169.24146	1047.08813	-986.53839	1319.59692	1264.97327	-1114.40271	860.79462	1095.88660	-691.06683	1013.03033	1240.67590				-624.22217	772.79401	1165.83716				-837.20471	848.60278	1085.23425	-974.82404	925.92841	1369.54443				-848.33972	479.24683	1022.02887				-839.97723	180.92061	911.59143	
316	3.150	-832.33832	1410.14941	1039.56287	-987.67639	1521.86267	1168.56934	-1059.08826	1443.15991	1034.50452				-1195.03955	1239.47266	1150.59167				-984.05414	1167.99744	1039.10876	-985.45551	1317.98499	1257.39734	-1243.61658	804.10132	1193.35388	-690.38629	1011.05304	1233.86060				-621.68915	771.34650	1162.93311				-837.04376	847.09320	1076.02136	-973.13403	923.02881	1360.43237				-846.85632	477.28430	1013.22900				-836.72034	181.35034	901.43103	
317	3.160	-830.56708	1409.04187	1033.06995	-986.42877	1520.42395	1161.17102	-1057.40295	1441.92273	1026.80396				-1193.77917	1238.19836	1142.94519				-982.81189	1166.68909	1030.97510	-984.19861	1316.31140	1249.61951	-1240.38574	804.14691	1183.08533	-689.10583	1010.07788	1226.55554				-619.10846	769.01636	1159.18811				-837.22656	845.02869	1068.01172	-971.60791	920.56897	1351.73083				-845.50751	475.71277	1004.66095				-833.62079	180.88391	892.15497	
318	3.170	-828.87830	1407.84827	1025.70264	-985.00751	1518.93237	1153.75537	-1055.54199	1440.67053	1019.05927				-1192.30774	1236.85718	1134.97485				-981.50134	1165.64526	1022.77234	-982.88251	1314.75244	1241.81055	-1237.34204	803.82190	1172.12500	-687.86072	1007.43036	1218.97107				-616.78375	766.82764	1155.63330				-836.31366	843.66504	1057.68384	-969.95483	917.92877	1342.20117				-843.80762	473.93359	997.20752				-830.50928	178.58162	884.90332	
319	3.180	-826.90851	1406.82361	1018.30725	-983.20068	1517.40686	1146.25867	-1053.46765	1439.38306	1011.23151				-1190.55762	1235.45435	1126.76550				-979.74054	1164.51794	1014.30243	-981.20770	1312.96265	1233.75781	-1233.59875	803.45947	1160.42615	-687.69757	1005.29279	1211.46118				-614.02020	765.16351	1150.59155				-835.32422	841.23218	1049.02087	-969.84814	916.68701	1333.18079				-842.33215	473.02939	987.76990				-828.76672	174.72350	877.69971	
320	3.190	-824.56519	1405.97363	1010.27277	-981.43152	1515.98438	1138.81116	-1051.42761	1438.51855	1003.32178				-1188.52893	1234.22229	1118.36121				-977.61768	1163.24219	1005.65900	-979.28699	1311.20703	1225.66443	-1230.36060	802.81696	1148.78198	-686.89337	1002.70123	1203.30347				-611.48694	763.61371	1146.19434				-834.46802	840.19409	1038.91541	-969.94214	916.32690	1323.27771				-841.14008	472.03726	978.29779				-826.58954	170.83099	871.26776	
321	3.200				-979.41516	1514.65649	1131.30029	-1049.19336	1437.53040	995.45526				-1186.25842	1232.94958	1109.75159				-975.50800	1162.27820	996.89081	-977.32379	1309.60901	1217.30469	-1227.17737	803.25006	1137.84680	-684.81976	1001.44427	1196.33582				-609.19293	761.52283	1140.97864				-833.80072	837.81415	1029.69141	-968.05823	913.86560	1314.39380				-840.10095	471.01584	967.97632	-1111.34070	124.52491	1392.28528	-825.63812	165.26350	867.47192	
322	3.210	-819.94409	1404.66663	995.00623	-977.15820	1513.28796	1123.81421	-1046.84558	1436.80188	987.59979				-1184.13281	1231.91003	1100.79456				-973.09778	1161.46594	987.97864	-975.11597	1308.07874	1208.89404				-683.38892	999.39319	1187.47998	-1193.02625	866.35510	909.08173	-606.48425	759.93970	1136.15894	-1145.34180	840.68396	1062.95911	-831.41034	837.04871	1020.37244	-965.53851	911.03632	1304.13269				-838.58868	468.90860	958.49475	-1112.44775	126.54399	1390.55737	-825.71454	159.53050	863.44745	
